<?xml version="1.0" encoding="utf-8"?>
<!-- Generator: Adobe Illustrator 16.0.3, SVG Export Plug-In . SVG Version: 6.00 Build 0)  -->
<!DOCTYPE svg PUBLIC "-//W3C//DTD SVG 1.1//EN" "http://www.w3.org/Graphics/SVG/1.1/DTD/svg11.dtd">
<svg version="1.1" xmlns="http://www.w3.org/2000/svg" xmlns:xlink="http://www.w3.org/1999/xlink" x="0px" y="0px" width="58px"
	 height="67px" viewBox="0 0 58 67" enable-background="new 0 0 58 67" xml:space="preserve">
<g id="Simple">
	<g>
		<g>
			<path fill="#333333" d="M-0.099,49.003l0.038-31.37c0-0.641,0.451-1.422,1.007-1.744L27.983,0.24
				c0.556-0.322,1.455-0.32,2.011,0.002l26.998,15.715c0.555,0.322,1.003,1.104,1.003,1.747l-0.037,31.37
				c0,0.643-0.452,1.424-1.007,1.744L29.913,66.467c-0.556,0.321-1.455,0.32-2.011-0.002L0.904,50.75
				C0.35,50.427-0.099,49.646-0.099,49.003z"/>
		</g>
	</g>
	
		<rect x="-21.5" y="-16.501" display="none" fill="none" stroke="#333333" stroke-width="5" stroke-miterlimit="10" width="100" height="100"/>
</g>
<g id="Full">
	<g>
		<g>
			<path fill="#333333" d="M-0.099-97.518l0.038-31.371c0-0.641,0.451-1.422,1.007-1.744l27.037-15.649
				c0.556-0.321,1.455-0.32,2.011,0.002l26.998,15.715c0.555,0.322,1.003,1.104,1.003,1.747l-0.037,31.37
				c0,0.643-0.452,1.424-1.007,1.744L29.913-80.054c-0.556,0.321-1.455,0.32-2.011-0.002L0.904-95.771
				C0.35-96.094-0.099-96.875-0.099-97.518z"/>
		</g>
		<g>
			<path fill="#333333" d="M93.862-85.334V-141c0-0.438,0.149-0.807,0.451-1.108s0.685-0.465,1.151-0.493h18.574
				c5.15,0,9.589,1.816,13.314,5.447c3.726,3.631,5.575,7.98,5.548,13.047c0,5.067-1.831,9.443-5.493,13.129
				c-3.663,3.686-8.077,5.528-13.243,5.528h-13.817v20.087c-0.028,0.418-0.208,0.794-0.54,1.128
				c-0.333,0.334-0.693,0.501-1.081,0.501h-3.243c-0.443,0-0.832-0.15-1.164-0.451C94.014-84.514,93.862-84.896,93.862-85.334z
				 M100.348-111.319h13.32c3.471,0,6.463-1.272,8.977-3.816s3.771-5.59,3.771-9.141s-1.257-6.514-3.771-8.89
				s-5.506-3.564-8.977-3.564h-13.32V-111.319z"/>
			<path fill="#333333" d="M148.041-113.085c0-8.401,2.908-15.559,8.728-21.47c5.819-5.912,12.946-8.867,21.383-8.867
				s15.571,2.956,21.404,8.867c5.859,5.911,8.789,13.068,8.789,21.47c0,8.402-2.93,15.531-8.79,21.388s-12.994,8.785-21.403,8.785
				c-8.408,0-15.536-2.929-21.382-8.785C150.95-97.554,148.041-104.683,148.041-113.085z M160.978-130.327
				c-4.766,4.817-7.148,10.564-7.148,17.242c0,6.678,2.383,12.397,7.148,17.159s10.49,7.144,17.174,7.144s12.408-2.382,17.174-7.144
				s7.177-10.481,7.231-17.159c0-6.677-2.41-12.424-7.231-17.242c-4.821-4.816-10.545-7.225-17.174-7.225
				C171.468-137.551,165.743-135.143,160.978-130.327z"/>
			<path fill="#333333" d="M229.767-85.334V-141c0-0.438,0.149-0.807,0.451-1.108c0.301-0.301,0.684-0.465,1.149-0.493h3.284
				c0.438,0,0.807,0.164,1.108,0.493c0.301,0.328,0.465,0.697,0.492,1.107v51.603h24.18c0.438,0,0.821,0.152,1.149,0.455
				s0.479,0.689,0.451,1.157v2.44c0,0.413-0.15,0.785-0.451,1.116c-0.302,0.331-0.685,0.496-1.149,0.496h-29.064
				c-0.438,0-0.821-0.15-1.149-0.451C229.916-84.514,229.767-84.896,229.767-85.334z"/>
			<path fill="#333333" d="M286.818-85.334v-26.725l-20.279-28.079c-0.328-0.547-0.355-1.094-0.082-1.642
				c0.273-0.547,0.753-0.821,1.437-0.821h3.941c0.492,0,0.944,0.26,1.354,0.78l17.017,23.44l16.974-23.44
				c0.383-0.493,0.835-0.752,1.354-0.78h3.941c0.684,0,1.163,0.274,1.437,0.821c0.273,0.548,0.246,1.095-0.082,1.642l-20.525,27.997
				v26.807c0,0.41-0.166,0.779-0.496,1.108c-0.331,0.328-0.702,0.492-1.115,0.492h-3.264c-0.441,0-0.827-0.15-1.157-0.451
				C286.97-84.514,286.818-84.896,286.818-85.334z"/>
		</g>
	</g>
	<rect x="-33" y="-166.167" fill="none" stroke="#333333" stroke-width="5" stroke-miterlimit="10" width="380" height="106"/>
</g>
</svg>
