<?xml version="1.0" encoding="utf-8"?>
<!-- Generator: Adobe Illustrator 16.0.3, SVG Export Plug-In . SVG Version: 6.00 Build 0)  -->
<!DOCTYPE svg PUBLIC "-//W3C//DTD SVG 1.1//EN" "http://www.w3.org/Graphics/SVG/1.1/DTD/svg11.dtd">
<svg version="1.1" id="Layer_1" xmlns="http://www.w3.org/2000/svg" xmlns:xlink="http://www.w3.org/1999/xlink" x="0px" y="0px"
	 width="110.375px" height="100px" viewBox="0 0 110.375 100" enable-background="new 0 0 110.375 100" xml:space="preserve">
<path d="M100.875,19.386c0,0.615-0.896,1.114-2,1.114h-87.75c-1.104,0-2-0.499-2-1.114v-8.772c0-0.615,0.896-1.114,2-1.114h87.75
	c1.104,0,2,0.499,2,1.114V19.386z"/>
<path d="M100.875,54.385c0,0.617-0.896,1.115-2,1.115h-87.75c-1.104,0-2-0.496-2-1.115v-8.771c0-0.614,0.896-1.113,2-1.113h87.75
	c1.104,0,2,0.499,2,1.113V54.385z"/>
<path d="M100.875,89.385c0,0.617-0.896,1.115-2,1.115h-87.75c-1.104,0-2-0.496-2-1.115v-8.77c0-0.617,0.896-1.115,2-1.115h87.75
	c1.104,0,2,0.496,2,1.115V89.385z"/>
</svg>
