<?xml version="1.0" encoding="utf-8"?>
<!-- Generator: Adobe Illustrator 16.0.3, SVG Export Plug-In . SVG Version: 6.00 Build 0)  -->
<!DOCTYPE svg PUBLIC "-//W3C//DTD SVG 1.1//EN" "http://www.w3.org/Graphics/SVG/1.1/DTD/svg11.dtd">
<svg version="1.1" id="Layer_1" xmlns="http://www.w3.org/2000/svg" xmlns:xlink="http://www.w3.org/1999/xlink" x="0px" y="0px"
	 width="87.833px" height="100px" viewBox="0 0 87.833 100" enable-background="new 0 0 87.833 100" xml:space="preserve">
<g>
	<g>
		<g>
			<path fill="#FFFFFF" stroke="#FFFFFF" stroke-width="2" stroke-miterlimit="10" d="M26.762,29.032"/>
		</g>
	</g>
	<g>
		<g>
			<path fill="#FFFFFF" stroke="#FFFFFF" stroke-miterlimit="10" d="M43.917,90.957c-18.983,0-34.428-15.445-34.428-34.428
				c-0.001-11.952,6.056-22.871,16.201-29.214l2.146,3.435c-8.952,5.597-14.297,15.233-14.296,25.779
				c0,16.749,13.627,30.378,30.378,30.378c16.75,0,30.378-13.629,30.378-30.378c0-16.752-13.628-30.379-30.378-30.379
				c-0.299,0-0.6,0.004-0.898,0.012c-0.297,0.009-0.596,0.022-0.894,0.039l-0.228-4.044c0.335-0.02,0.671-0.034,1.008-0.044
				c19.422-0.516,35.44,15.095,35.44,34.416C78.344,75.512,62.9,90.957,43.917,90.957z"/>
			<path fill="#FFFFFF" stroke="#FFFFFF" stroke-miterlimit="10" d="M43.917,91.957c-19.535,0-35.428-15.893-35.428-35.428
				c-0.001-12.297,6.231-23.535,16.67-30.062l0.848-0.53l3.206,5.131l-0.848,0.53c-8.659,5.413-13.828,14.733-13.827,24.931
				c0,16.199,13.179,29.378,29.378,29.378s29.378-13.179,29.378-29.378c0-16.2-13.179-29.379-29.378-29.379
				c-0.29,0-0.583,0.004-0.872,0.011c-0.285,0.009-0.575,0.022-0.865,0.038l-0.998,0.056l-0.34-6.039l0.997-0.058
				c0.345-0.02,0.691-0.035,1.038-0.045c0.323-0.009,0.645-0.013,0.963-0.013c19.578,0,35.505,15.893,35.505,35.428
				S63.452,91.957,43.917,91.957z M25.378,28.706c-9.344,6.228-14.891,16.554-14.89,27.823c0,18.432,14.996,33.428,33.428,33.428
				c18.432,0,33.428-14.996,33.428-33.428c0-18.727-15.534-33.926-34.393-33.417l0.115,2.048
				c17.734-0.452,32.228,13.785,32.228,31.369c0,17.302-14.076,31.378-31.378,31.378S12.539,73.831,12.539,56.529
				c-0.001-10.558,5.186-20.235,13.927-26.084L25.378,28.706z"/>
		</g>
	</g>
	<g>
		<g>
			<polygon fill="#FFFFFF" stroke="#FFFFFF" stroke-miterlimit="10" points="56.641,11.436 54.566,9.043 40.142,21.569 
				40.131,21.558 37.745,23.646 52.537,40.55 54.92,38.462 42.229,23.955 			"/>
			<path fill="#FFFFFF" stroke="#FFFFFF" stroke-miterlimit="10" d="M52.443,41.961l-16.109-18.41l3.892-3.405l0.013,0.015
				L54.666,7.632l3.386,3.903L43.643,24.052l12.689,14.504L52.443,41.961z M39.156,23.74L52.63,39.138l0.879-0.77l-12.694-14.51
				l14.416-12.522l-0.765-0.882L40.045,22.978l-0.008-0.009L39.156,23.74z"/>
		</g>
	</g>
</g>
</svg>
