<?xml version="1.0" encoding="utf-8"?>
<!-- Generator: Adobe Illustrator 16.0.3, SVG Export Plug-In . SVG Version: 6.00 Build 0)  -->
<!DOCTYPE svg PUBLIC "-//W3C//DTD SVG 1.1//EN" "http://www.w3.org/Graphics/SVG/1.1/DTD/svg11.dtd">
<svg version="1.1" id="Layer_1" xmlns="http://www.w3.org/2000/svg" xmlns:xlink="http://www.w3.org/1999/xlink" x="0px" y="0px"
	 width="400px" height="125px" viewBox="0 0 400 125" enable-background="new 0 0 400 125" xml:space="preserve">
<g>
	<g>
		<path fill="#333333" d="M43.028,77.983l0.038-31.037c0-0.635,0.451-1.408,1.005-1.726l26.994-15.482
			c0.555-0.318,1.452-0.317,2.008,0.002l26.954,15.549c0.554,0.319,1.002,1.092,1.002,1.728l-0.037,31.037
			c0,0.636-0.452,1.409-1.006,1.726L72.992,95.262c-0.555,0.318-1.453,0.317-2.008-0.002L44.029,79.712
			C43.477,79.393,43.028,78.619,43.028,77.983z"/>
	</g>
	<g>
		<path fill="#333333" d="M136.902,89.621V35.38c0-0.426,0.148-0.787,0.45-1.08s0.685-0.453,1.151-0.48h18.562
			c5.146,0,9.582,1.77,13.306,5.307c3.724,3.539,5.571,7.776,5.544,12.714c0,4.937-1.829,9.201-5.489,12.792
			c-3.661,3.592-8.072,5.388-13.234,5.388h-13.81v19.572c-0.028,0.407-0.207,0.773-0.539,1.1c-0.333,0.325-0.693,0.487-1.081,0.487
			h-3.24c-0.443,0-0.832-0.146-1.164-0.439C137.053,90.42,136.902,90.047,136.902,89.621z M143.383,64.301h13.312
			c3.469,0,6.459-1.24,8.971-3.719c2.512-2.479,3.769-5.447,3.769-8.907s-1.257-6.347-3.769-8.662
			c-2.512-2.315-5.502-3.473-8.971-3.473h-13.312V64.301z"/>
		<path fill="#333333" d="M191.047,62.58c0-8.186,2.906-15.16,8.722-20.919c5.815-5.761,12.938-8.641,21.369-8.641
			c8.432,0,15.562,2.88,21.392,8.641c5.855,5.759,8.783,12.733,8.783,20.919c0,8.188-2.928,15.133-8.784,20.84
			c-5.857,5.707-12.986,8.561-21.391,8.561c-8.402,0-15.526-2.854-21.368-8.561C193.954,77.713,191.047,70.768,191.047,62.58z
			 M203.975,45.78c-4.762,4.694-7.144,10.293-7.144,16.8c0,6.507,2.382,12.08,7.144,16.72c4.763,4.64,10.484,6.961,17.163,6.961
			c6.68,0,12.4-2.321,17.163-6.961c4.763-4.641,7.173-10.213,7.228-16.72c0-6.506-2.409-12.106-7.228-16.8
			c-4.818-4.693-10.538-7.04-17.163-7.04C214.459,38.74,208.737,41.086,203.975,45.78z"/>
		<path fill="#333333" d="M272.721,89.621V35.38c0-0.426,0.149-0.787,0.451-1.08c0.301-0.293,0.684-0.453,1.148-0.48h3.282
			c0.438,0,0.807,0.16,1.107,0.48s0.465,0.679,0.492,1.079V85.66h24.165c0.437,0,0.82,0.148,1.148,0.443
			c0.328,0.296,0.479,0.672,0.451,1.127v2.379c0,0.402-0.15,0.765-0.451,1.088c-0.302,0.322-0.685,0.482-1.148,0.482H274.32
			c-0.438,0-0.82-0.146-1.148-0.439C272.87,90.42,272.721,90.047,272.721,89.621z"/>
		<path fill="#333333" d="M329.737,89.621V63.58l-20.267-27.36c-0.328-0.533-0.355-1.066-0.082-1.6c0.273-0.533,0.752-0.8,1.436-0.8
			h3.938c0.492,0,0.944,0.254,1.354,0.76l17.006,22.84l16.964-22.84c0.382-0.48,0.834-0.733,1.354-0.76h3.938
			c0.684,0,1.162,0.267,1.436,0.8c0.273,0.534,0.246,1.067-0.082,1.6L336.219,63.5v26.121c0,0.398-0.166,0.759-0.495,1.08
			c-0.331,0.319-0.702,0.479-1.115,0.479h-3.261c-0.441,0-0.827-0.146-1.157-0.439C329.888,90.42,329.737,90.047,329.737,89.621z"/>
	</g>
</g>
</svg>
